# Blender v2.93.5 OBJ File: 'boxes.blend'
# www.blender.org
mtllib boxes.mtl
o Cube_Cube.001
v 0.224839 1.362419 -0.525072
v 0.224839 1.362419 -0.525072
v 0.224839 1.362419 -0.525072
v 1.382320 -1.000000 -1.000000
v 1.382320 -1.000000 -1.000000
v 0.725818 1.000000 0.525072
v 0.725818 1.000000 0.525072
v 0.725818 1.000000 0.525072
v 1.382320 -1.000000 1.000000
v 1.382320 -1.000000 1.000000
v 1.382320 -1.000000 1.000000
v -0.224839 1.362419 -0.525072
v -0.224839 1.362419 -0.525072
v -0.224839 1.362419 -0.525072
v -1.382320 -1.000000 -1.000000
v -1.382320 -1.000000 -1.000000
v -0.725818 1.000000 0.525072
v -0.725818 1.000000 0.525072
v -0.725818 1.000000 0.525072
v -1.382320 -1.000000 1.000000
v -1.382320 -1.000000 1.000000
v -1.382320 -1.000000 1.000000
v 1.382320 -1.000000 -2.934390
v 1.382320 -1.000000 -2.934390
v 1.382320 -1.000000 -2.934390
v -1.382320 -1.000000 -2.934390
v -1.382320 -1.000000 -2.934390
v -1.382320 -1.000000 -2.934390
v 1.382320 1.000000 -2.934390
v 1.382320 1.000000 -2.934390
v 1.382320 1.000000 -2.934390
v -1.382320 1.000000 -2.934390
v -1.382320 1.000000 -2.934390
v -1.382320 1.000000 -2.934390
v 1.382320 1.000000 1.000000
v 1.382320 1.000000 1.000000
v 1.382320 1.000000 1.000000
v -1.382320 1.000000 1.000000
v -1.382320 1.000000 1.000000
v -1.382320 1.000000 1.000000
v 1.382320 1.000000 -1.000000
v 1.382320 1.000000 -1.000000
v -1.382320 1.000000 -1.000000
v -1.382320 1.000000 -1.000000
v 0.725818 2.131123 0.525072
v 0.725818 2.131123 0.525072
v 0.725818 2.131123 0.525072
v -0.725818 2.131123 0.525072
v -0.725818 2.131123 0.525072
v -0.725818 2.131123 0.525072
v 0.224839 1.768704 -0.525072
v 0.224839 1.768704 -0.525072
v 0.224839 1.768704 -0.525072
v -0.224839 1.768704 -0.525072
v -0.224839 1.768704 -0.525072
v -0.224839 1.768704 -0.525072
v -0.725818 1.000000 -0.525072
v -0.725818 1.000000 -0.525072
v -0.725818 1.000000 -0.525072
v 0.725818 1.000000 -0.525072
v 0.725818 1.000000 -0.525072
v 0.725818 1.000000 -0.525072
v -0.725818 2.131123 -0.525072
v -0.725818 2.131123 -0.525072
v -0.725818 2.131123 -0.525072
v 0.725818 2.131123 -0.525072
v 0.725818 2.131123 -0.525072
v 0.725818 2.131123 -0.525072
v -0.725818 1.000000 -0.525072
v -0.725818 1.000000 -0.525072
v -0.725818 1.000000 -0.525072
v 0.725818 1.000000 -0.525072
v 0.725818 1.000000 -0.525072
v 0.725818 1.000000 -0.525072
v -0.725818 2.131123 -0.525072
v -0.725818 2.131123 -0.525072
v -0.725818 2.131123 -0.525072
v 0.725818 2.131123 -0.525072
v 0.725818 2.131123 -0.525072
v 0.725818 2.131123 -0.525072
v -0.224839 1.362419 -2.733146
v -0.224839 1.362419 -2.733146
v -0.224839 1.362419 -2.733146
v 0.224839 1.362419 -2.733146
v 0.224839 1.362419 -2.733146
v 0.224839 1.362419 -2.733146
v -0.224839 1.768704 -2.733146
v -0.224839 1.768704 -2.733146
v -0.224839 1.768704 -2.733146
v 0.224839 1.768704 -2.733146
v 0.224839 1.768704 -2.733146
v 0.224839 1.768704 -2.733146
vt 0.815634 0.559366
vt 0.815634 0.690634
vt 0.815634 0.690634
vt 0.815634 0.559366
vt 0.375000 0.750000
vt 0.625000 0.750000
vt 0.625000 1.000000
vt 0.375000 1.000000
vt 0.375000 0.000000
vt 0.625000 0.000000
vt 0.625000 0.250000
vt 0.375000 0.250000
vt 0.125000 0.500000
vt 0.375000 0.500000
vt 0.375000 0.750000
vt 0.125000 0.750000
vt 0.375000 0.500000
vt 0.625000 0.500000
vt 0.625000 0.750000
vt 0.375000 0.750000
vt 0.625000 0.250000
vt 0.375000 0.250000
vt 0.375000 0.250000
vt 0.625000 0.250000
vt 0.625000 0.500000
vt 0.375000 0.500000
vt 0.125000 0.500000
vt 0.375000 0.500000
vt 0.875000 0.500000
vt 0.625000 0.500000
vt 0.625000 0.500000
vt 0.875000 0.500000
vt 0.375000 0.500000
vt 0.625000 0.500000
vt 0.684366 0.690634
vt 0.815634 0.690634
vt 0.875000 0.750000
vt 0.625000 0.750000
vt 0.684366 0.559366
vt 0.815634 0.559366
vt 0.684366 0.559366
vt 0.815634 0.559366
vt 0.815634 0.690634
vt 0.684366 0.690634
vt 0.815634 0.690634
vt 0.684366 0.690634
vt 0.684366 0.690634
vt 0.815634 0.690634
vt 0.729668 0.559366
vt 0.729668 0.559366
vt 0.729668 0.559366
vt 0.729668 0.559366
vt 0.684366 0.690634
vt 0.684366 0.559366
vt 0.684366 0.559366
vt 0.684366 0.690634
vt 0.770332 0.559366
vt 0.729668 0.559366
vt 0.684366 0.559366
vt 0.815634 0.559366
vt 0.729668 0.559366
vt 0.770332 0.559366
vt 0.815634 0.559366
vt 0.684366 0.559366
vt 0.770332 0.559366
vt 0.729668 0.559366
vt 0.729668 0.559366
vt 0.770332 0.559366
vt 0.770332 0.559366
vt 0.770332 0.559366
vt 0.770332 0.559366
vt 0.770332 0.559366
vt 0.729668 0.559366
vt 0.770332 0.559366
vt 0.770332 0.559366
vt 0.729668 0.559366
vt 0.815634 0.559366
vt 0.684366 0.559366
vt 0.684366 0.559366
vt 0.815634 0.559366
vt 0.000000 0.000000
vt 0.000000 0.000000
vt 0.000000 0.000000
vt 0.000000 0.000000
vt 0.000000 0.000000
vt 0.000000 0.000000
vt 0.000000 0.000000
vt 0.000000 0.000000
vt 0.729668 0.559366
vt 0.770332 0.559366
vt 0.770332 0.559366
vt 0.729668 0.559366
vn -1.0000 0.0000 0.0000
vn 0.0000 0.0000 1.0000
vn 0.0000 -1.0000 0.0000
vn 1.0000 0.0000 0.0000
vn 0.0000 0.0000 -1.0000
vn 0.0000 1.0000 0.0000
vn 0.1464 0.3535 -0.9239
vn 0.0000 0.0000 -0.9239
vn -0.1464 -0.3535 -0.9239
usemtl Material.001
s off
f 57/1/1 17/2/1 48/3/1
f 57/1/1 48/3/1 63/4/1
f 10/5/2 35/6/2 39/7/2
f 10/5/2 39/7/2 22/8/2
f 20/9/1 38/10/1 43/11/1
f 20/9/1 43/11/1 15/12/1
f 16/13/3 4/14/3 9/15/3
f 16/13/3 9/15/3 21/16/3
f 5/17/4 42/18/4 37/19/4
f 5/17/4 37/19/4 11/20/4
f 15/12/1 43/11/1 32/21/1
f 15/12/1 32/21/1 26/22/1
f 28/23/5 33/24/5 29/25/5
f 28/23/5 29/25/5 24/26/5
f 4/14/3 16/13/3 27/27/3
f 4/14/3 27/27/3 23/28/3
f 44/29/6 41/30/6 30/31/6
f 44/29/6 30/31/6 34/32/6
f 42/18/4 5/17/4 25/33/4
f 42/18/4 25/33/4 31/34/4
f 7/35/6 19/36/6 40/37/6
f 7/35/6 40/37/6 36/38/6
f 61/39/6 7/35/6 36/38/6
f 61/39/6 36/38/6 41/30/6
f 19/36/6 59/40/6 44/29/6
f 19/36/6 44/29/6 40/37/6
f 59/40/6 61/39/6 41/30/6
f 59/40/6 41/30/6 44/29/6
f 67/41/6 65/42/6 50/43/6
f 67/41/6 50/43/6 46/44/6
f 18/45/2 6/46/2 45/47/2
f 18/45/2 45/47/2 49/48/2
f 53/49/4 3/50/4 86/51/4
f 53/49/4 86/51/4 92/52/4
f 8/53/4 62/54/4 68/55/4
f 8/53/4 68/55/4 47/56/4
f 14/57/5 2/58/5 72/59/5
f 14/57/5 72/59/5 69/60/5
f 51/61/5 55/62/5 75/63/5
f 51/61/5 75/63/5 78/64/5
f 55/62/5 14/57/5 69/60/5
f 55/62/5 69/60/5 75/63/5
f 2/58/5 51/61/5 78/64/5
f 2/58/5 78/64/5 72/59/5
f 56/65/6 52/66/6 91/67/6
f 56/65/6 91/67/6 89/68/6
f 12/69/1 54/70/1 87/71/1
f 12/69/1 87/71/1 81/72/1
f 1/73/3 13/74/3 82/75/3
f 1/73/3 82/75/3 84/76/3
s 1
f 71/77/2 74/78/2 61/39/2
f 71/77/2 61/39/2 59/40/2
f 80/79/2 77/80/2 65/42/2
f 80/79/2 65/42/2 67/41/2
f 76/81/7 70/82/8 58/83/9
f 76/81/7 58/83/9 64/84/8
f 73/85/9 79/86/8 66/87/7
f 73/85/9 66/87/7 60/88/8
f 85/89/5 83/90/5 88/91/5
f 85/89/5 88/91/5 90/92/5
